<?xml version="1.0" standalone="no"?>
<!DOCTYPE svg PUBLIC "-//W3C//DTD SVG 20010904//EN"
 "http://www.w3.org/TR/2001/REC-SVG-20010904/DTD/svg10.dtd">
<svg version="1.0" xmlns="http://www.w3.org/2000/svg"
 width="96.000000pt" height="96.000000pt" viewBox="0 0 96.000000 96.000000"
 preserveAspectRatio="xMidYMid meet">

<g transform="translate(0.000000,96.000000) scale(0.100000,-0.100000)"
fill="#000000" stroke="none">
<path d="M332 897 c-15 -16 -22 -36 -22 -65 l0 -42 -87 0 c-102 0 -145 -16
-180 -69 -23 -34 -23 -38 -23 -357 l0 -324 460 0 460 0 0 324 c0 319 0 323
-23 357 -35 53 -78 69 -179 69 l-88 0 0 43 c0 33 -6 49 -23 65 -21 20 -34 22
-148 22 -118 0 -127 -1 -147 -23z m276 -64 l3 -43 -130 0 -131 0 0 38 c0 21 3
42 7 46 4 3 61 5 127 4 l121 -3 3 -42z m268 -116 l24 -28 0 -305 0 -304 -420
0 -420 0 0 303 c0 326 2 336 54 357 11 5 182 8 379 7 l359 -2 24 -28z"/>
<path d="M414 636 c-49 -22 -64 -51 -64 -128 0 -52 5 -77 25 -114 36 -67 33
-78 -24 -102 -54 -22 -84 -58 -79 -94 l3 -23 205 0 205 0 3 23 c5 36 -25 72
-79 94 -57 24 -60 35 -24 102 19 36 25 62 25 109 0 74 -14 99 -72 127 -48 23
-81 25 -124 6z m98 -38 c52 -15 68 -47 58 -113 -8 -57 -24 -100 -39 -110 -17
-10 -13 -71 5 -86 9 -8 35 -23 57 -34 79 -39 62 -45 -113 -45 -175 0 -192 6
-113 45 82 41 91 68 48 149 -16 30 -26 66 -27 102 -2 50 0 59 25 80 32 27 44
29 99 12z"/>
</g>
</svg>
